<svg width="24" height="24" viewBox="0 0 24 24" fill="none" xmlns="http://www.w3.org/2000/svg">
  <circle cx="12" cy="12" r="3" stroke="#222" stroke-width="1.6"/>
  <path d="M19.4 15a1.65 1.65 0 0 0 .33 1.82l.06.06a2 2 0 1 1-2.83 2.83l-.06-.06a1.65 1.65 0 0 0-1.82-.33 1.65 1.65 0 0 0-1 1.51V21a2 2 0 1 1-4 0v-.09a1.65 1.65 0 0 0-1-1.51 1.65 1.65 0 0 0-1.82.33l-.06.06a2 2 0 1 1-2.83-2.83l.06-.06c.46-.46.6-1.15.33-1.82a1.65 1.65 0 0 0-1.51-1H3a2 2 0 1 1 0-4h.09c.7 0 1.31-.39 1.51-1a1.65 1.65 0 0 0-.33-1.82l-.06-.06a2 2 0 1 1 2.83-2.83l.06.06c.46.46 1.15.6 1.82.33.61-.2 1-.81 1-1.51V3a2 2 0 1 1 4 0v.09c0 .7.39 1.31 1 1.51.67.27 1.36.13 1.82-.33l.06-.06a2 2 0 1 1 2.83 2.83l-.06.06c-.46.46-.6 1.15-.33 1.82.2.61.81 1 1.51 1H21a2 2 0 1 1 0 4h-.09c-.7 0-1.31.39-1.51 1z" stroke="#222" stroke-width="1.2" stroke-linecap="round"/>
</svg>
